<svg xmlns="http://www.w3.org/2000/svg" xmlns:xlink="http://www.w3.org/1999/xlink" fill="#ffffff" version="1.1" x="0px" y="0px" viewBox="0 0 24 30" enable-background="new 0 0 24 24" xml:space="preserve"><path d="M21.626,5.595h-4.985c0.005-0.089,0.027-0.174,0.027-0.264c0-2.574-2.095-4.667-4.668-4.667S7.333,2.757,7.333,5.331  c0,0.09,0.022,0.175,0.027,0.264H2.375c-1.282,0-2.326,1.043-2.326,2.325v13.091c0,1.282,1.044,2.325,2.326,2.325h19.252  c1.282,0,2.325-1.043,2.325-2.325V7.92C23.952,6.638,22.909,5.595,21.626,5.595z M12,16.421c-1.078,0-1.954-0.877-1.954-1.955  c0-1.078,0.876-1.955,1.954-1.955s1.954,0.877,1.954,1.955C13.955,15.544,13.079,16.421,12,16.421z M12,9.198  c-0.662,0-1.277-0.183-1.822-0.477l0.872-1.138l0.37-0.004l1.111,0.004c0.159,0,0.318-0.003,0.475-0.009l0.828,1.14  C13.286,9.013,12.667,9.198,12,9.198z M8.133,5.331c0-0.25,0.028-0.494,0.074-0.731C9.022,4.882,9.486,5.041,9.74,5.124  c0,0.001,0,0.003,0.001,0.005c0.11,0.372,0.229,0.741,0.346,1.111c0.095,0.297,0.188,0.593,0.28,0.892  c0.002,0.006,0.006,0.013,0.008,0.019L9.517,8.27C8.678,7.56,8.133,6.513,8.133,5.331z M12.002,3.929l0.624,0.457  c0.279,0.203,0.56,0.406,0.835,0.613c-0.181,0.596-0.369,1.189-0.567,1.779c-0.12,0.004-0.241,0.005-0.362,0.005L11.42,6.78  c-0.108,0-0.216,0-0.324,0.002c-0.081-0.262-0.164-0.524-0.247-0.786c-0.105-0.33-0.21-0.661-0.311-0.991  c0.288-0.216,0.579-0.429,0.87-0.641L12.002,3.929z M14.495,8.262l-0.859-1.183c0.211-0.627,0.411-1.256,0.602-1.888l1.557-0.582  c0.044,0.234,0.073,0.475,0.073,0.722C15.868,6.509,15.328,7.552,14.495,8.262z M15.568,3.84l-1.547,0.578  c-0.305-0.23-0.615-0.455-0.923-0.679l-0.696-0.51V1.504C13.829,1.653,15.033,2.565,15.568,3.84z M11.6,1.504v1.729l-0.662,0.485  c-0.301,0.219-0.6,0.438-0.897,0.662C9.718,4.274,9.004,4.029,8.436,3.833C8.972,2.561,10.174,1.653,11.6,1.504z M0.849,12.552  l1.354-0.011l0.016,3.835h-1.37V12.552z M0.849,17.176h1.37c0.433,0,0.785-0.352,0.785-0.785v-3.85c0-0.433-0.353-0.785-0.785-0.785  h-1.37v-1.512l3.435-0.013l0.016,8.456h-3.45V17.176z M0.849,21.011v-1.525h3.45c0.433,0,0.785-0.352,0.785-0.785v-8.471  c0-0.433-0.353-0.785-0.785-0.785h-3.45V7.92c0-0.841,0.684-1.525,1.525-1.525h5.092C7.73,7.517,8.396,8.481,9.307,9.13  c0.011,0.01,0.017,0.024,0.029,0.033C9.342,9.167,9.35,9.165,9.355,9.169c0.648,0.448,1.418,0.717,2.245,0.789v1.794  c-1.328,0.196-2.354,1.332-2.354,2.714s1.026,2.518,2.354,2.714v5.357H2.375C1.533,22.537,0.849,21.852,0.849,21.011z M23.151,16.38  l-1.354,0.011l-0.015-3.835h1.369V16.38z M23.151,11.756h-1.369c-0.434,0-0.786,0.352-0.786,0.785v3.85  c0,0.433,0.353,0.785,0.786,0.785h1.369v1.512l-3.435,0.014l-0.016-8.456h3.45V11.756z M23.151,9.446h-3.45  c-0.433,0-0.785,0.352-0.785,0.785v8.471c0,0.433,0.353,0.785,0.785,0.785h3.45v1.525c0,0.841-0.684,1.525-1.524,1.525h-9.226V17.18  c1.328-0.196,2.354-1.332,2.354-2.714s-1.026-2.518-2.354-2.714V9.958c2.024-0.176,3.679-1.631,4.134-3.563h5.092  c0.841,0,1.524,0.685,1.524,1.525V9.446z"/><text x="0" y="39" fill="#ffffff" font-size="5px" font-weight="bold" font-family="'Helvetica Neue', Helvetica, Arial-Unicode, Arial, Sans-serif">Created by Atif Arshad</text><text x="0" y="44" fill="#ffffff" font-size="5px" font-weight="bold" font-family="'Helvetica Neue', Helvetica, Arial-Unicode, Arial, Sans-serif">from the Noun Project</text></svg>